<?xml version="1.0" encoding="UTF-8"?>
<svg width="1653px" height="287px" viewBox="0 0 1653 287" version="1.1" xmlns="http://www.w3.org/2000/svg" xmlns:xlink="http://www.w3.org/1999/xlink">
    <!-- Generator: Sketch 43 (38999) - http://www.bohemiancoding.com/sketch -->
    <title>Artboard</title>
    <desc>Created with Sketch.</desc>
    <defs></defs>
    <g id="Page-3" stroke="none" stroke-width="1" fill="none" fill-rule="evenodd">
        <g id="Artboard-3" transform="translate(-635.000000, -1211.000000)"></g>
        <g id="Artboard">
            <g id="Group">
                <path d="M180.625266,228.851737 C180.625266,228.851737 315.249161,227.660149 315.249161,198.805324 C315.249161,169.950498 264.171335,170.233042 180.625266,169.950498 C86.2518616,169.631337 8.36980976e-14,163.842523 0,85.2752394 C-2.6635874e-14,50.3238155 180.625266,56.4053056 180.625266,56.4053056 C180.625266,56.4053056 55.5197002,52.8466429 55.5197002,85.2752394 C55.5197002,106.884613 79.6716486,113.364623 180.625266,113.364623 C281.578883,113.364623 369.372074,113.364623 369.372074,198.805324 C369.372074,244.710902 180.625266,228.851737 180.625266,228.851737 Z" id="Polygon-1" fill="#11618F"></path>
                <path d="M0,84.9959839 C0,84.9959839 -3.86288927e-10,63.9554616 8.03801847,52.4349444 C39.7327933,7.00830094 98.7409537,1.30896454e-10 180.625265,0 C262.509576,-1.30895295e-10 369.372067,8.50406969e-09 369.372073,84.8635396 C369.37207,84.8635396 314.525713,84.8635396 314.525716,84.8635396 C314.52571,56.6051854 235.661891,56.6051854 180.62527,56.6051854 C125.58865,56.6051854 0.529853268,56.6051854 0,84.9959839 Z" id="Polygon-1" fill="#1E9AE2"></path>
                <path d="M54.8220921,200.018168 C54.8220921,227.837183 180.653295,227.837183 180.653296,227.837183 C180.653298,227.837183 337.942305,235.170759 369.400106,200.018168 C369.400106,280.188866 270.226022,284.576124 180.653298,284.576124 C91.0805731,284.576124 1.00000002,284.576124 1,200.018168 C1.00000002,200.081112 54.8220937,199.95523 54.8220921,200.018168 Z" id="Polygon-1" fill="#1E9AE2"></path>
                <path d="M1520.21331,248.666587 C1520.21331,248.666587 1614.2828,247.841642 1614.2828,227.865224 C1614.2828,207.888806 1578.59177,208.084414 1520.21331,207.888806 C1454.26916,207.667849 1394,203.660208 1394,149.267473 C1394,125.070334 1520.21331,129.280596 1520.21331,129.280596 C1520.21331,129.280596 1432.79482,126.816907 1432.79482,149.267473 C1432.79482,164.227809 1449.67118,168.71397 1520.21331,168.71397 C1590.75543,168.71397 1652.1016,168.71397 1652.1016,227.865224 C1652.1016,259.646009 1520.21331,248.666587 1520.21331,248.666587 Z" id="Polygon-1" fill="#147F62"></path>
                <path d="M1394,148.843373 C1394,148.843373 1394,134.276858 1399.61663,126.301115 C1421.7636,94.8519007 1462.99601,90 1520.21331,90 C1577.4306,90 1652.1016,90 1652.1016,148.751681 C1652.1016,148.751681 1613.77728,148.751681 1613.77729,148.751681 C1613.77728,129.188205 1558.67058,129.188205 1520.21331,129.188205 C1481.75604,129.188205 1394.37024,129.188205 1394,148.843373 Z" id="Polygon-1" fill="#24CB9C"></path>
                <path d="M1432.6086,228.012578 C1432.6086,247.271896 1520.53413,247.271896 1520.53414,247.271896 C1520.53414,247.271896 1630.44105,252.348987 1652.42243,228.012578 C1652.42243,283.515368 1583.12377,286.552701 1520.53414,286.552701 C1457.9445,286.552701 1395,286.552701 1395,228.012578 C1395,228.056155 1432.60861,227.969005 1432.6086,228.012578 Z" id="Polygon-1" fill="#24CB9C"></path>
                <path d="M451.188001,89.0002188 C545.891135,88.9653984 612.051306,93.0224081 612.051306,147.615648 C612.051306,202.208888 545.891135,207.379919 450,207.379921 C450,204.824722 451.144116,166.758061 450,166.758061 C522.932802,166.758059 571.721783,166.758059 571.721783,147.615648 C571.721783,128.473237 522.932802,128.180802 451.144116,128.180804 C451.144116,128.180804 451.144116,88.9653984 451.188001,89.0002188 Z" id="Polygon-19" fill="#147492"></path>
                <path d="M450.196815,88.0348203 C537.231655,88.0028195 611.686853,90.9386725 611.686853,142.401291 C580.927867,124.26128 516.410416,127.554682 450.152929,127.554684 C450.152929,127.554684 450.152928,284.481573 450.152928,284.481573 L410,284.481573 C410,284.481573 410,88.0000002 410,88 C424.15476,88 450.152929,88 450.196815,88.0348203 Z" id="Polygon-19" fill="#21AFDE"></path>
                <path d="M890.177083,88.0348076 C890.133219,163.779475 890.133218,284.409639 890.133218,284.409639 L850,284.409639 C850,284.409639 850,88.0000002 850,88 C864.147811,88 890.133219,88 890.177083,88.0348076 Z" id="Polygon-19" fill="#31C6C7"></path>
                <path d="M890.177083,88.0348076 C890.133219,163.779475 890.133218,284.409639 890.133218,284.409639 L850,284.409639 C850,284.409639 850,88.0000002 850,88 C864.147811,88 890.133219,88 890.177083,88.0348076 Z" id="Polygon-19" fill="#28D8D8"></path>
                <path d="M890.196815,88 C890.152929,163.772409 890.152928,284.446752 890.152928,284.446752 L850,284.446752 L890.196815,88 Z" id="Polygon-19" fill="#188C8C"></path>
                <polygon id="Polygon-19" fill="#167F8E" points="812.287719 244 812.53125 284.186064 692 284.18607 692 244"></polygon>
                <path d="M692.177083,88.0348076 C692.161946,114.173178 692.177083,284.409632 692.177083,284.409632 L652,284.409639 C652,284.409639 652,88.0000002 652,88 C666.147811,88 692.133219,88 692.177083,88.0348076 Z" id="Polygon-19" fill="#24C3DA"></path>
                <path d="M971.196815,89.0348203 C971.152929,164.807229 971.152928,285.481573 971.152928,285.481573 L931,285.481573 C931,285.481573 931,89.0000002 931,89 C945.15476,89 971.152929,89 971.196815,89.0348203 Z" id="Polygon-19" fill="#28DBC9"></path>
                <polygon id="Polygon-19" fill="#188E83" points="971 89 1072.01667 219.939759 1072.01667 285.36365 971 154.46988"></polygon>
                <path d="M1112.19681,89.0348203 C1112.15293,164.807229 1112.15293,285.481573 1112.15293,285.481573 L1072,285.481573 C1072,285.481573 1072,89.0000002 1072,89 C1086.15476,89 1112.15293,89 1112.19681,89.0348203 Z" id="Polygon-19" fill="#28DBC9"></path>
                <polygon id="Polygon-77" fill="#19937D" transform="translate(1253.016106, 187.204819) scale(-1, 1) translate(-1253.016106, -187.204819) " points="1152 285.409639 1303.525 89 1354.03221 89 1202.50833 285.409639"></polygon>
                <polygon id="Polygon-77" fill="#29DFBD" points="1152 285.409639 1303.525 89 1354.03221 89 1202.50833 285.409639"></polygon>
            </g>
        </g>
    </g>
</svg>